<?xml version="1.0" encoding="UTF-8" standalone="no"?>
<svg
   height="20.799999"
   viewBox="0 0 20.799999 20.799999"
   width="20.799999"
   fill="#000000"
   version="1.1"
   id="svg6"
   sodipodi:docname="fiber_manual_record_black_24dp.svg"
   inkscape:version="1.1 (c68e22c387, 2021-05-23)"
   xmlns:inkscape="http://www.inkscape.org/namespaces/inkscape"
   xmlns:sodipodi="http://sodipodi.sourceforge.net/DTD/sodipodi-0.dtd"
   xmlns="http://www.w3.org/2000/svg"
   xmlns:svg="http://www.w3.org/2000/svg">
  <defs
     id="defs10">
    <filter
       style="color-interpolation-filters:sRGB"
       inkscape:label="Drop Shadow"
       id="filter1274"
       x="-0.15"
       y="-0.15"
       width="1.3"
       height="1.3">
      <feFlood
         flood-opacity="1"
         flood-color="rgb(0,0,0)"
         result="flood"
         id="feFlood1264" />
      <feComposite
         in="flood"
         in2="SourceGraphic"
         operator="in"
         result="composite1"
         id="feComposite1266" />
      <feGaussianBlur
         in="composite1"
         stdDeviation="1"
         result="blur"
         id="feGaussianBlur1268" />
      <feOffset
         dx="0"
         dy="0"
         result="offset"
         id="feOffset1270" />
      <feComposite
         in="SourceGraphic"
         in2="offset"
         operator="over"
         result="composite2"
         id="feComposite1272" />
    </filter>
  </defs>
  <sodipodi:namedview
     id="namedview8"
     pagecolor="#ffffff"
     bordercolor="#666666"
     borderopacity="1.0"
     inkscape:pageshadow="2"
     inkscape:pageopacity="0.0"
     inkscape:pagecheckerboard="0"
     showgrid="false"
     inkscape:zoom="32.583333"
     inkscape:cx="10.388747"
     inkscape:cy="10.404092"
     inkscape:window-width="1920"
     inkscape:window-height="986"
     inkscape:window-x="-11"
     inkscape:window-y="-11"
     inkscape:window-maximized="1"
     inkscape:current-layer="svg6" />
  <circle
     style="fill:#ff0000;fill-opacity:1;stroke-width:1.3645"
     id="path984"
     cx="10.4"
     cy="10.4"
     r="7.1508951" />
  <path
     d="M -1.5999999,-1.5999999 H 22.4 V 22.4 H -1.5999999 Z"
     fill="none"
     id="path2" />
  <path
     d="m 10.4,4.4000001 c 3.31,0 6,2.69 6,5.9999999 0,3.31 -2.69,6 -6,6 -3.3099999,0 -5.9999999,-2.69 -5.9999999,-6 0,-3.3099999 2.69,-5.9999999 5.9999999,-5.9999999 m 0,-2 c -4.4199999,0 -7.9999999,3.58 -7.9999999,7.9999999 0,4.42 3.58,8 7.9999999,8 4.42,0 8,-3.58 8,-8 0,-4.4199999 -3.58,-7.9999999 -8,-7.9999999 z"
     id="path4"
     style="fill:#ffffff;fill-opacity:1;filter:url(#filter1274)" />
</svg>
